<svg xmlns="http://www.w3.org/2000/svg" xmlns:xlink="http://www.w3.org/1999/xlink" width="400" zoomAndPan="magnify" viewBox="0 0 300 74.999997" height="100" preserveAspectRatio="xMidYMid meet" version="1.0"><defs><g/></defs><g fill="#000000" fill-opacity="1"><g transform="translate(4.006573, 47.758268)"><g><path d="M 9.828125 15.050781 C 9.0625 14.488281 9.011719 13.515625 9.417969 12.59375 C 9.675781 12.132812 9.574219 12.03125 10.085938 11.929688 C 9.933594 12.285156 9.828125 14.488281 9.828125 15.050781 Z M 13.925781 -32.507812 L 9.472656 -30.410156 C 7.988281 -29.640625 -2.046875 -24.316406 -2.046875 -22.832031 C -2.046875 -22.269531 -1.742188 -22.066406 -1.332031 -22.066406 C -1.023438 -22.066406 -0.664062 -22.21875 -0.359375 -22.371094 C 0.0507812 -22.628906 0.101562 -22.730469 0.460938 -22.988281 C 0.871094 -23.242188 1.125 -23.449219 1.484375 -23.652344 C 2.765625 -24.523438 4.042969 -25.289062 5.375 -26.058594 L 11.46875 -29.230469 C 12.183594 -29.488281 12.902344 -29.847656 13.566406 -30.203125 L 12.132812 -15.871094 C 11.929688 -14.179688 11.773438 -12.644531 11.773438 -10.90625 L 7.988281 -9.113281 C 7.320312 -8.804688 4.914062 -7.421875 4.914062 -6.65625 C 4.914062 -6.144531 5.121094 -5.988281 5.425781 -5.988281 C 6.09375 -5.988281 7.117188 -6.757812 7.167969 -6.757812 L 11.46875 -8.960938 L 10.800781 0.152344 C 10.75 0.714844 10.800781 1.230469 10.800781 1.742188 C 10.75 2.457031 10.648438 2.355469 10.648438 3.175781 C 10.597656 3.992188 10.339844 8.753906 10.1875 9.265625 C 9.777344 10.546875 7.679688 10.238281 7.679688 14.230469 C 7.679688 15.203125 8.960938 17.046875 10.035156 17.046875 C 10.75 17.046875 11.417969 16.28125 11.621094 13.976562 C 11.722656 12.59375 11.621094 10.289062 12.441406 9.726562 C 12.796875 9.523438 13.363281 9.265625 13.925781 9.011719 C 14.539062 8.652344 14.898438 8.5 15.5625 8.242188 C 21.859375 5.476562 30.203125 4.710938 37.117188 4.710938 C 38.960938 4.710938 40.597656 4.8125 41.722656 5.015625 C 43.925781 5.375 43.617188 5.9375 44.128906 6.296875 C 44.640625 5.632812 44.691406 6.144531 44.691406 5.066406 C 44.691406 3.582031 41.417969 3.121094 37.476562 3.121094 C 31.894531 3.121094 25.035156 3.992188 23.804688 4.25 C 20.734375 4.710938 17.609375 5.582031 14.847656 6.808594 C 14.078125 7.117188 12.953125 7.933594 12.132812 7.988281 L 13.769531 -9.933594 C 14.386719 -9.984375 14.898438 -10.238281 15.410156 -10.445312 C 18.175781 -11.519531 24.828125 -13.566406 27.441406 -13.566406 C 27.902344 -13.566406 28.003906 -13.3125 28.054688 -12.902344 C 28.515625 -12.953125 28.515625 -13.003906 28.875 -13.054688 C 29.179688 -14.386719 29.027344 -15.101562 27.285156 -15.101562 C 26.773438 -15.101562 26.210938 -15.050781 25.496094 -14.949219 C 23.601562 -14.746094 19.453125 -13.566406 17.664062 -13.003906 C 16.636719 -12.695312 14.691406 -11.824219 13.925781 -11.722656 C 13.925781 -12.746094 14.179688 -13.976562 14.230469 -14.898438 L 15.871094 -30.972656 C 16.484375 -32.097656 30.152344 -36.296875 31.585938 -36.707031 C 38.394531 -38.34375 40.855469 -38.550781 47.816406 -38.550781 C 48.992188 -38.550781 49.558594 -38.292969 50.425781 -38.140625 C 50.273438 -37.21875 49.300781 -36.246094 48.941406 -35.273438 C 50.324219 -35.425781 52.066406 -36.347656 52.066406 -38.292969 C 52.066406 -39.984375 49.351562 -40.496094 45.972656 -40.496094 C 41.160156 -40.496094 34.863281 -39.421875 33.226562 -39.011719 C 28.3125 -38.089844 22.730469 -36.144531 18.175781 -34.300781 C 17.558594 -34.097656 16.585938 -33.582031 16.023438 -33.480469 C 16.28125 -36.449219 16.484375 -38.394531 16.484375 -41.671875 C 16.484375 -42.542969 16.074219 -42.746094 15.511719 -43.054688 C 14.4375 -42.441406 14.796875 -42.441406 14.640625 -41.007812 C 14.589844 -40.136719 14.386719 -38.90625 14.386719 -38.140625 C 14.386719 -36.246094 13.925781 -34.453125 13.925781 -32.507812 Z M 13.925781 -32.507812 "/></g></g></g><g fill="#000000" fill-opacity="1"><g transform="translate(50.331212, 47.758268)"><g><path d="M -0.511719 3.328125 C -0.511719 9.777344 1.175781 21.554688 9.777344 21.554688 C 16.125 21.554688 23.5 13.667969 26.417969 9.777344 C 27.441406 8.394531 28.3125 7.066406 29.285156 5.632812 L 36.910156 -8.292969 C 36.910156 -8.652344 36.605469 -9.0625 36.144531 -9.0625 C 35.683594 -9.0625 35.070312 -8.703125 34.453125 -7.527344 C 30.71875 -0.410156 26.929688 7.167969 21.347656 12.851562 C 20.683594 13.515625 20.171875 13.824219 19.503906 14.4375 L 17.765625 15.972656 C 15.71875 17.558594 12.746094 19.453125 9.828125 19.453125 C 6.554688 19.453125 4.554688 16.945312 3.6875 14.078125 C 1.074219 7.21875 2.40625 -1.996094 3.839844 -8.804688 C 5.527344 -17.046875 9.625 -29.179688 15.511719 -35.070312 C 17.253906 -36.808594 19.199219 -37.730469 20.886719 -37.730469 C 22.988281 -37.730469 24.625 -36.195312 24.625 -32.714844 C 24.625 -27.183594 22.527344 -22.320312 20.476562 -17.609375 C 20.222656 -16.945312 19.914062 -16.332031 19.660156 -15.613281 C 19.148438 -14.640625 19.042969 -14.335938 19.914062 -13.71875 C 20.9375 -13.925781 20.988281 -14.335938 21.347656 -15.152344 C 23.394531 -19.300781 26.621094 -26.773438 26.621094 -31.28125 C 26.621094 -33.890625 26.773438 -35.683594 25.1875 -37.933594 C 24.011719 -39.523438 22.472656 -40.1875 20.835938 -40.1875 C 18.636719 -40.1875 16.230469 -39.011719 14.335938 -37.527344 C 10.1875 -34.25 6.960938 -27.902344 5.015625 -22.988281 C 2.253906 -15.972656 -0.511719 -6.347656 -0.511719 3.328125 Z M -0.511719 3.328125 "/></g></g></g><g fill="#000000" fill-opacity="1"><g transform="translate(85.189866, 47.758268)"><g><path d="M 9.828125 15.050781 C 9.0625 14.488281 9.011719 13.515625 9.417969 12.59375 C 9.675781 12.132812 9.574219 12.03125 10.085938 11.929688 C 9.933594 12.285156 9.828125 14.488281 9.828125 15.050781 Z M 13.925781 -32.507812 L 9.472656 -30.410156 C 7.988281 -29.640625 -2.046875 -24.316406 -2.046875 -22.832031 C -2.046875 -22.269531 -1.742188 -22.066406 -1.332031 -22.066406 C -1.023438 -22.066406 -0.664062 -22.21875 -0.359375 -22.371094 C 0.0507812 -22.628906 0.101562 -22.730469 0.460938 -22.988281 C 0.871094 -23.242188 1.125 -23.449219 1.484375 -23.652344 C 2.765625 -24.523438 4.042969 -25.289062 5.375 -26.058594 L 11.46875 -29.230469 C 12.183594 -29.488281 12.902344 -29.847656 13.566406 -30.203125 L 12.132812 -15.871094 C 11.929688 -14.179688 11.773438 -12.644531 11.773438 -10.90625 L 7.988281 -9.113281 C 7.320312 -8.804688 4.914062 -7.421875 4.914062 -6.65625 C 4.914062 -6.144531 5.121094 -5.988281 5.425781 -5.988281 C 6.09375 -5.988281 7.117188 -6.757812 7.167969 -6.757812 L 11.46875 -8.960938 L 10.800781 0.152344 C 10.75 0.714844 10.800781 1.230469 10.800781 1.742188 C 10.75 2.457031 10.648438 2.355469 10.648438 3.175781 C 10.597656 3.992188 10.339844 8.753906 10.1875 9.265625 C 9.777344 10.546875 7.679688 10.238281 7.679688 14.230469 C 7.679688 15.203125 8.960938 17.046875 10.035156 17.046875 C 10.75 17.046875 11.417969 16.28125 11.621094 13.976562 C 11.722656 12.59375 11.621094 10.289062 12.441406 9.726562 C 12.796875 9.523438 13.363281 9.265625 13.925781 9.011719 C 14.539062 8.652344 14.898438 8.5 15.5625 8.242188 C 21.859375 5.476562 30.203125 4.710938 37.117188 4.710938 C 38.960938 4.710938 40.597656 4.8125 41.722656 5.015625 C 43.925781 5.375 43.617188 5.9375 44.128906 6.296875 C 44.640625 5.632812 44.691406 6.144531 44.691406 5.066406 C 44.691406 3.582031 41.417969 3.121094 37.476562 3.121094 C 31.894531 3.121094 25.035156 3.992188 23.804688 4.25 C 20.734375 4.710938 17.609375 5.582031 14.847656 6.808594 C 14.078125 7.117188 12.953125 7.933594 12.132812 7.988281 L 13.769531 -9.933594 C 14.386719 -9.984375 14.898438 -10.238281 15.410156 -10.445312 C 18.175781 -11.519531 24.828125 -13.566406 27.441406 -13.566406 C 27.902344 -13.566406 28.003906 -13.3125 28.054688 -12.902344 C 28.515625 -12.953125 28.515625 -13.003906 28.875 -13.054688 C 29.179688 -14.386719 29.027344 -15.101562 27.285156 -15.101562 C 26.773438 -15.101562 26.210938 -15.050781 25.496094 -14.949219 C 23.601562 -14.746094 19.453125 -13.566406 17.664062 -13.003906 C 16.636719 -12.695312 14.691406 -11.824219 13.925781 -11.722656 C 13.925781 -12.746094 14.179688 -13.976562 14.230469 -14.898438 L 15.871094 -30.972656 C 16.484375 -32.097656 30.152344 -36.296875 31.585938 -36.707031 C 38.394531 -38.34375 40.855469 -38.550781 47.816406 -38.550781 C 48.992188 -38.550781 49.558594 -38.292969 50.425781 -38.140625 C 50.273438 -37.21875 49.300781 -36.246094 48.941406 -35.273438 C 50.324219 -35.425781 52.066406 -36.347656 52.066406 -38.292969 C 52.066406 -39.984375 49.351562 -40.496094 45.972656 -40.496094 C 41.160156 -40.496094 34.863281 -39.421875 33.226562 -39.011719 C 28.3125 -38.089844 22.730469 -36.144531 18.175781 -34.300781 C 17.558594 -34.097656 16.585938 -33.582031 16.023438 -33.480469 C 16.28125 -36.449219 16.484375 -38.394531 16.484375 -41.671875 C 16.484375 -42.542969 16.074219 -42.746094 15.511719 -43.054688 C 14.4375 -42.441406 14.796875 -42.441406 14.640625 -41.007812 C 14.589844 -40.136719 14.386719 -38.90625 14.386719 -38.140625 C 14.386719 -36.246094 13.925781 -34.453125 13.925781 -32.507812 Z M 13.925781 -32.507812 "/></g></g></g><g fill="#000000" fill-opacity="1"><g transform="translate(131.514505, 47.758268)"><g/></g></g><g fill="#000000" fill-opacity="1"><g transform="translate(144.772049, 47.758268)"><g><path d="M 2.355469 13.667969 C 1.945312 13.667969 1.945312 13.566406 1.535156 13.515625 C 0.714844 9.878906 5.171875 5.324219 7.472656 3.019531 C 7.988281 2.457031 9.828125 0.820312 10.445312 0.664062 C 9.984375 1.484375 9.625 4.402344 7.679688 8.34375 C 6.808594 10.085938 4.554688 13.667969 2.355469 13.667969 Z M 27.339844 -10.957031 C 26.828125 -10.699219 26.058594 -10.496094 25.394531 -10.339844 C 23.703125 -9.726562 21.605469 -8.753906 20.070312 -7.988281 L 15.050781 -5.222656 C 14.488281 -4.863281 13.925781 -4.402344 13.3125 -4.199219 C 13.414062 -5.222656 14.285156 -8.292969 14.539062 -9.417969 C 15.460938 -12.851562 17.148438 -18.277344 18.582031 -21.5 L 20.683594 -26.007812 C 22.117188 -28.875 27.492188 -38.292969 31.074219 -38.5 C 32.203125 -36.757812 31.074219 -31.691406 30.71875 -29.847656 C 29.796875 -25.394531 28.414062 -18.582031 27.851562 -14.179688 C 27.695312 -13.15625 27.59375 -11.929688 27.339844 -10.957031 Z M 2.046875 15.410156 C 9.625 15.410156 12.285156 -0.921875 12.851562 -1.484375 C 12.902344 -1.585938 14.386719 -2.664062 14.640625 -2.765625 C 18.328125 -5.121094 18.429688 -5.171875 22.578125 -7.21875 C 24.421875 -8.140625 26.058594 -8.601562 27.03125 -9.0625 C 27.03125 -7.628906 26.828125 -6.707031 26.671875 -5.324219 L 25.085938 9.625 C 24.984375 11.980469 24.625 15.71875 24.625 17.558594 C 24.625 18.480469 24.472656 18.636719 24.472656 19.453125 C 24.367188 20.988281 24.164062 26.878906 25.699219 26.878906 C 27.183594 26.878906 26.519531 25.597656 26.519531 22.527344 C 26.519531 20.785156 26.671875 19.402344 26.671875 17.867188 L 29.128906 -8.703125 C 29.230469 -9.777344 29.285156 -9.777344 30.257812 -9.984375 C 31.636719 -10.238281 32.304688 -10.289062 32.609375 -10.289062 C 33.125 -10.289062 32.507812 -10.035156 33.429688 -10.035156 C 34.503906 -10.035156 34.761719 -11.929688 32.816406 -11.929688 C 31.535156 -11.929688 30.71875 -11.621094 29.589844 -11.621094 C 29.589844 -12.746094 29.796875 -13.566406 29.949219 -14.640625 C 30.613281 -19.199219 33.277344 -32.046875 33.277344 -35.324219 C 33.277344 -36.910156 33.53125 -40.136719 30.921875 -40.136719 C 28.566406 -40.136719 25.699219 -36.757812 24.574219 -35.324219 C 17.816406 -27.082031 13.667969 -14.230469 11.417969 -3.6875 C 11.109375 -2.203125 10.851562 -2.457031 8.753906 -0.714844 C 5.425781 2.046875 -0.359375 7.832031 -0.511719 12.390625 C -0.511719 14.027344 0.460938 15.410156 2.046875 15.410156 Z M 2.046875 15.410156 "/></g></g></g><g fill="#000000" fill-opacity="1"><g transform="translate(176.508264, 47.758268)"><g><path d="M 0.613281 8.445312 C 0.613281 6.398438 2.097656 4.09375 3.328125 2.609375 C 3.941406 1.894531 5.171875 0.359375 5.988281 -0.101562 C 5.988281 1.332031 6.039062 2.457031 5.683594 3.636719 C 5.222656 5.324219 4.09375 7.78125 2.714844 8.804688 C 2.355469 9.113281 1.742188 9.523438 1.28125 9.523438 C 0.921875 9.523438 0.613281 9.214844 0.613281 8.445312 Z M 0.152344 -8.292969 C 0.152344 -5.582031 3.738281 -4.710938 5.324219 -1.792969 C 4.554688 -0.5625 -1.023438 3.839844 -1.023438 8.445312 C -1.023438 10.289062 0 11.261719 1.433594 11.261719 C 2.96875 11.261719 4.914062 10.085938 6.398438 7.578125 C 9.828125 1.742188 7.730469 -1.230469 7.933594 -1.945312 C 8.039062 -2.355469 11.671875 -5.066406 12.234375 -5.375 L 15.71875 -7.78125 C 16.894531 -8.445312 16.996094 -9.316406 16.175781 -9.316406 C 15.71875 -9.316406 15.050781 -9.113281 14.179688 -8.5 L 9.417969 -5.171875 C 8.652344 -4.503906 7.933594 -3.941406 7.117188 -3.378906 C 4.453125 -7.371094 0.613281 -7.21875 3.328125 -10.289062 C 4.09375 -11.160156 3.941406 -10.90625 5.171875 -11.210938 C 5.476562 -12.492188 5.015625 -13.003906 4.300781 -13.003906 C 2.816406 -13.003906 0.152344 -10.90625 0.152344 -8.292969 Z M 0.152344 -8.292969 "/></g></g></g><g fill="#000000" fill-opacity="1"><g transform="translate(191.301434, 47.758268)"><g><path d="M 0.613281 8.445312 C 0.613281 6.398438 2.097656 4.09375 3.328125 2.609375 C 3.941406 1.894531 5.171875 0.359375 5.988281 -0.101562 C 5.988281 1.332031 6.039062 2.457031 5.683594 3.636719 C 5.222656 5.324219 4.09375 7.78125 2.714844 8.804688 C 2.355469 9.113281 1.742188 9.523438 1.28125 9.523438 C 0.921875 9.523438 0.613281 9.214844 0.613281 8.445312 Z M 0.152344 -8.292969 C 0.152344 -5.582031 3.738281 -4.710938 5.324219 -1.792969 C 4.554688 -0.5625 -1.023438 3.839844 -1.023438 8.445312 C -1.023438 10.289062 0 11.261719 1.433594 11.261719 C 2.96875 11.261719 4.914062 10.085938 6.398438 7.578125 C 9.828125 1.742188 7.730469 -1.230469 7.933594 -1.945312 C 8.039062 -2.355469 11.671875 -5.066406 12.234375 -5.375 L 15.71875 -7.78125 C 16.894531 -8.445312 16.996094 -9.316406 16.175781 -9.316406 C 15.71875 -9.316406 15.050781 -9.113281 14.179688 -8.5 L 9.417969 -5.171875 C 8.652344 -4.503906 7.933594 -3.941406 7.117188 -3.378906 C 4.453125 -7.371094 0.613281 -7.21875 3.328125 -10.289062 C 4.09375 -11.160156 3.941406 -10.90625 5.171875 -11.210938 C 5.476562 -12.492188 5.015625 -13.003906 4.300781 -13.003906 C 2.816406 -13.003906 0.152344 -10.90625 0.152344 -8.292969 Z M 0.152344 -8.292969 "/></g></g></g><g fill="#000000" fill-opacity="1"><g transform="translate(206.094615, 47.758268)"><g><path d="M 2.558594 -1.175781 C 1.433594 -3.53125 3.789062 -8.140625 4.148438 -9.625 C 5.9375 -8.445312 4.660156 -1.742188 2.558594 -1.175781 Z M 0 -2.917969 C 0 -0.257812 1.125 1.074219 2.457031 1.074219 C 3.992188 1.074219 5.886719 -0.714844 6.65625 -4.25 C 7.78125 -9.523438 5.324219 -10.394531 5.066406 -11.367188 C 5.324219 -11.773438 5.785156 -12.082031 5.9375 -12.441406 C 6.09375 -12.851562 5.785156 -13.667969 5.121094 -13.667969 C 2.609375 -13.667969 0 -5.222656 0 -2.917969 Z M 0 -2.917969 "/></g></g></g><g fill="#000000" fill-opacity="1"><g transform="translate(215.10361, 47.758268)"><g><path d="M 0 -7.015625 C 0 -3.789062 1.433594 -0.769531 4.964844 -0.769531 C 8.601562 -0.769531 11.824219 -4.300781 13.925781 -6.960938 C 14.179688 -7.269531 14.539062 -7.730469 14.691406 -8.089844 C 15 -8.753906 14.746094 -9.316406 14.285156 -9.316406 C 14.027344 -9.316406 13.617188 -9.0625 13.257812 -8.550781 C 11.367188 -5.988281 8.550781 -2.457031 5.015625 -2.457031 C 3.789062 -2.457031 3.226562 -3.121094 2.867188 -4.042969 C 1.636719 -6.554688 3.429688 -11.058594 5.222656 -12.285156 C 5.324219 -11.417969 5.734375 -10.957031 6.144531 -10.957031 C 6.5 -10.957031 6.808594 -11.367188 6.808594 -12.285156 C 6.808594 -13.617188 6.195312 -14.335938 5.171875 -14.335938 C 2.203125 -14.335938 0 -9.417969 0 -7.015625 Z M 0 -7.015625 "/></g></g></g><g fill="#000000" fill-opacity="1"><g transform="translate(227.490968, 47.758268)"><g><path d="M 4.25 0.203125 C 6.65625 0.203125 8.601562 -2.046875 9.828125 -3.328125 C 10.648438 -4.148438 13.71875 -7.578125 13.71875 -8.550781 C 13.71875 -9.011719 13.566406 -9.164062 13.363281 -9.164062 C 12.390625 -9.164062 9.675781 -5.527344 9.472656 -5.273438 C 8.703125 -4.300781 6.039062 -1.585938 4.402344 -1.585938 C 3.019531 -1.585938 2.457031 -4.609375 2.457031 -6.144531 C 2.457031 -11.367188 4.503906 -13.667969 2.148438 -13.667969 C 1.125 -13.667969 0.613281 -11.367188 0.460938 -10.289062 C -0.101562 -7.679688 0 -4.148438 1.230469 -1.84375 C 1.792969 -0.871094 2.867188 0.203125 4.25 0.203125 Z M 2.609375 -20.121094 C 2.609375 -18.992188 3.277344 -18.480469 3.992188 -18.480469 C 5.015625 -18.480469 6.09375 -19.609375 5.121094 -21.5 C 4.8125 -22.066406 4.453125 -22.269531 4.09375 -22.269531 C 3.328125 -22.269531 2.609375 -21.296875 2.609375 -20.121094 Z M 2.609375 -20.121094 "/></g></g></g><g fill="#000000" fill-opacity="1"><g transform="translate(239.161721, 47.758268)"><g><path d="M 0 -5.171875 C 0 -3.328125 0.152344 -2.457031 2.046875 -2.457031 C 3.53125 -2.457031 5.121094 -7.269531 6.09375 -7.933594 C 6.09375 -5.734375 7.730469 -3.070312 10.289062 -3.070312 C 11.160156 -3.070312 12.132812 -3.378906 13.15625 -4.09375 L 14.691406 -5.324219 C 17.304688 -7.832031 16.996094 -9.113281 16.230469 -9.113281 C 15.921875 -9.113281 15.5625 -8.960938 15.308594 -8.601562 C 14.589844 -7.832031 14.4375 -7.371094 13.464844 -6.5 C 12.339844 -5.375 11.261719 -4.761719 10.289062 -4.761719 C 9.214844 -4.761719 8.292969 -5.582031 7.882812 -7.421875 C 7.421875 -9.367188 8.292969 -11.671875 6.5 -11.671875 C 5.835938 -11.671875 3.738281 -7.320312 2.714844 -5.734375 L 2.304688 -5.121094 C 2.046875 -4.8125 2.203125 -5.015625 2.046875 -4.863281 C 2.046875 -6.554688 2.765625 -8.5 3.429688 -9.574219 C 4.914062 -12.132812 5.9375 -12.851562 6.707031 -12.851562 C 7.679688 -12.851562 8.292969 -11.671875 9.011719 -11.671875 C 10.339844 -11.671875 9.011719 -14.589844 6.605469 -14.589844 C 3.019531 -14.589844 0 -8.089844 0 -5.171875 Z M 0 -5.171875 "/></g></g></g><g fill="#000000" fill-opacity="1"><g transform="translate(254.00608, 47.758268)"><g><path d="M -14.386719 -22.832031 C -14.386719 -22.117188 -13.875 -21.960938 -13.3125 -21.960938 C -13.003906 -21.960938 -12.695312 -22.015625 -12.441406 -22.066406 C -11.980469 -23.039062 -12.492188 -22.832031 -11.210938 -23.34375 C -10.597656 -23.601562 -10.136719 -23.960938 -9.523438 -24.214844 C -6.347656 -25.445312 -3.429688 -26.3125 -0.0507812 -27.132812 C 0.460938 -27.285156 1.636719 -27.492188 1.945312 -27.59375 L 1.484375 -22.832031 C 1.433594 -22.167969 1.382812 -21.042969 1.28125 -20.375 C 1.023438 -18.890625 0.972656 -11.980469 0.972656 -10.035156 L 0.820312 -7.628906 C 0.820312 -3.890625 0.664062 2.203125 0.972656 5.886719 C 0.972656 7.117188 1.023438 8.960938 2.355469 8.960938 C 3.6875 8.960938 2.917969 5.425781 2.917969 4.25 C 2.816406 1.996094 2.867188 -8.242188 3.019531 -9.777344 C 3.121094 -10.851562 3.019531 -13.15625 3.019531 -14.640625 C 3.019531 -15.359375 3.175781 -15.359375 3.175781 -16.023438 C 3.175781 -16.535156 3.121094 -17.148438 3.175781 -17.609375 L 4.199219 -28.105469 C 5.425781 -28.363281 13.207031 -29.847656 16.023438 -29.847656 C 16.382812 -29.847656 16.636719 -29.847656 16.84375 -29.796875 C 17.457031 -29.640625 17.304688 -29.847656 17.457031 -29.335938 C 19.402344 -29.335938 18.789062 -31.382812 16.382812 -31.382812 C 13.257812 -31.382812 10.238281 -30.871094 7.269531 -30.308594 C 6.5 -30.203125 5.425781 -29.898438 4.609375 -29.898438 C 4.609375 -31.535156 5.632812 -30.203125 5.632812 -31.535156 C 5.632812 -31.84375 5.582031 -32.046875 5.582031 -32.203125 C 5.527344 -32.714844 5.632812 -32.304688 5.632812 -32.917969 C 5.632812 -33.738281 5.222656 -34.402344 4.660156 -34.402344 C 3.992188 -34.402344 3.175781 -33.480469 2.664062 -30.71875 C 2.304688 -28.976562 2.457031 -29.4375 0.308594 -28.875 C -2.609375 -28.054688 -14.386719 -25.136719 -14.386719 -22.832031 Z M -14.386719 -22.832031 "/></g></g></g><g fill="#000000" fill-opacity="1"><g transform="translate(259.943823, 47.758268)"><g><path d="M 4.25 0.203125 C 6.65625 0.203125 8.601562 -2.046875 9.828125 -3.328125 C 10.648438 -4.148438 13.71875 -7.578125 13.71875 -8.550781 C 13.71875 -9.011719 13.566406 -9.164062 13.363281 -9.164062 C 12.390625 -9.164062 9.675781 -5.527344 9.472656 -5.273438 C 8.703125 -4.300781 6.039062 -1.585938 4.402344 -1.585938 C 3.019531 -1.585938 2.457031 -4.609375 2.457031 -6.144531 C 2.457031 -11.367188 4.503906 -13.667969 2.148438 -13.667969 C 1.125 -13.667969 0.613281 -11.367188 0.460938 -10.289062 C -0.101562 -7.679688 0 -4.148438 1.230469 -1.84375 C 1.792969 -0.871094 2.867188 0.203125 4.25 0.203125 Z M 2.609375 -20.121094 C 2.609375 -18.992188 3.277344 -18.480469 3.992188 -18.480469 C 5.015625 -18.480469 6.09375 -19.609375 5.121094 -21.5 C 4.8125 -22.066406 4.453125 -22.269531 4.09375 -22.269531 C 3.328125 -22.269531 2.609375 -21.296875 2.609375 -20.121094 Z M 2.609375 -20.121094 "/></g></g></g><g fill="#000000" fill-opacity="1"><g transform="translate(271.614553, 47.758268)"><g><path d="M 2.558594 -1.175781 C 1.433594 -3.53125 3.789062 -8.140625 4.148438 -9.625 C 5.9375 -8.445312 4.660156 -1.742188 2.558594 -1.175781 Z M 0 -2.917969 C 0 -0.257812 1.125 1.074219 2.457031 1.074219 C 3.992188 1.074219 5.886719 -0.714844 6.65625 -4.25 C 7.78125 -9.523438 5.324219 -10.394531 5.066406 -11.367188 C 5.324219 -11.773438 5.785156 -12.082031 5.9375 -12.441406 C 6.09375 -12.851562 5.785156 -13.667969 5.121094 -13.667969 C 2.609375 -13.667969 0 -5.222656 0 -2.917969 Z M 0 -2.917969 "/></g></g></g><g fill="#000000" fill-opacity="1"><g transform="translate(280.623547, 47.758268)"><g><path d="M 1.433594 -2.664062 C 3.429688 -2.664062 5.476562 -9.214844 7.167969 -10.339844 C 7.628906 -9.367188 6.910156 -7.320312 7.933594 -4.25 C 8.394531 -2.867188 9.265625 -1.484375 10.851562 -1.484375 C 11.160156 -1.484375 11.46875 -1.535156 11.824219 -1.636719 C 13.003906 -1.945312 14.640625 -3.992188 15.359375 -4.914062 C 15.664062 -5.324219 18.6875 -9.113281 16.691406 -9.113281 C 15.769531 -9.113281 13.054688 -3.019531 11.007812 -3.019531 C 9.113281 -3.019531 9.011719 -7.578125 9.011719 -8.855469 L 8.703125 -11.722656 C 8.445312 -12.285156 8.089844 -12.542969 7.730469 -12.542969 C 6.5 -12.542969 4.964844 -9.933594 4.660156 -9.367188 L 2.203125 -5.632812 C 2.203125 -9.625 5.527344 -14.4375 3.277344 -14.4375 C 1.332031 -14.4375 -1.84375 -2.664062 1.433594 -2.664062 Z M 1.433594 -2.664062 "/></g></g></g></svg>